<svg viewBox="70 80 658 658" fill="none" xmlns="http://www.w3.org/2000/svg">
  <g clip-path="url(#icon-clip)">
    <path d="M681.395 190.663C699.448 190.663 713.412 206.492 711.161 224.405L669.172 558.481C667.287 573.484 654.528 584.739 639.406 584.739L160.439 584.739C145.328 584.739 132.576 573.501 130.677 558.51L88.3568 224.43C86.0865 206.508 100.054 190.66 118.119 190.66L681.395 190.663Z" fill="#001556"/>
    <path d="M722.822 597.91C725.583 597.91 727.82 600.149 727.822 602.91C727.835 622.5 707.836 635.5 702.336 635.5L99.8377 635.06C81.6016 635.121 69.8359 613 70.0017 602.909C70.0023 600.148 72.2407 597.91 75.0017 597.91H341.002C341.001 597.94 341 597.97 341 598C341 603.523 345.477 608 351 608H447C452.523 608 457 603.523 457 598C457 597.97 456.998 597.94 456.998 597.91H722.822Z" fill="#001556"/>
    <path d="M267 529.2V250H331.4L399.8 380.8H400.6L468.2 250H533V529.2H475.8V346H474.6L454.2 386.8L399.8 485.6L346.6 387.2L325.4 343.2H324.2V529.2H267Z" fill="white"/>
  </g>
  <defs>
    <clipPath id="icon-clip">
      <rect width="800" height="800" fill="white"/>
    </clipPath>
  </defs>
</svg>
